<?xml version="1.0" encoding="us-ascii" standalone="no"?><svg xmlns="http://www.w3.org/2000/svg" xmlns:xlink="http://www.w3.org/1999/xlink" contentStyleType="text/css" height="815px" preserveAspectRatio="none" style="width:1080px;height:815px;background:#FFFFFF;" version="1.1" viewBox="0 0 1080 815" width="1080px" zoomAndPan="magnify"><defs/><g><text fill="#000000" font-family="sans-serif" font-size="14" font-weight="bold" lengthAdjust="spacing" textLength="380" x="343" y="24.5332">Sistema de Extracci&#243;n de Contratos de Arrendamiento</text><!--cluster Fase 1 - Extracci?n y Exportaci?n--><g id="cluster_Fase 1 - Extracci&#243;n y Exportaci&#243;n"><path d="M174.5,44.6094 L407.5,44.6094 A3.75,3.75 0 0 1 410,47.1094 L417,68.2188 L574.5,68.2188 A2.5,2.5 0 0 1 577,70.7188 L577,698.1094 A2.5,2.5 0 0 1 574.5,700.6094 L174.5,700.6094 A2.5,2.5 0 0 1 172,698.1094 L172,47.1094 A2.5,2.5 0 0 1 174.5,44.6094 " fill="none" style="stroke:#000000;stroke-width:1.5;"/><line style="stroke:#000000;stroke-width:1.5;" x1="172" x2="417" y1="68.2188" y2="68.2188"/><text fill="#000000" font-family="sans-serif" font-size="14" font-weight="bold" lengthAdjust="spacing" textLength="232" x="176" y="61.1426">Fase 1 - Extracci&#243;n y Exportaci&#243;n</text></g><!--cluster Fase 2 - Consultas con Chatbot--><g id="cluster_Fase 2 - Consultas con Chatbot"><path d="M810.5,384.6094 L1029.5,384.6094 A3.75,3.75 0 0 1 1032,387.1094 L1039,408.2188 L1049.5,408.2188 A2.5,2.5 0 0 1 1052,410.7188 L1052,806.1094 A2.5,2.5 0 0 1 1049.5,808.6094 L810.5,808.6094 A2.5,2.5 0 0 1 808,806.1094 L808,387.1094 A2.5,2.5 0 0 1 810.5,384.6094 " fill="none" style="stroke:#000000;stroke-width:1.5;"/><line style="stroke:#000000;stroke-width:1.5;" x1="808" x2="1039" y1="408.2188" y2="408.2188"/><text fill="#000000" font-family="sans-serif" font-size="14" font-weight="bold" lengthAdjust="spacing" textLength="218" x="812" y="401.1426">Fase 2 - Consultas con Chatbot</text></g><!--cluster Fase 3 - Monitoreo Autom?tico--><g id="cluster_Fase 3 - Monitoreo Autom&#225;tico"><path d="M805.5,44.6094 L1020.5,44.6094 A3.75,3.75 0 0 1 1023,47.1094 L1030,68.2188 L1070.5,68.2188 A2.5,2.5 0 0 1 1073,70.7188 L1073,358.1094 A2.5,2.5 0 0 1 1070.5,360.6094 L805.5,360.6094 A2.5,2.5 0 0 1 803,358.1094 L803,47.1094 A2.5,2.5 0 0 1 805.5,44.6094 " fill="none" style="stroke:#000000;stroke-width:1.5;"/><line style="stroke:#000000;stroke-width:1.5;" x1="803" x2="1030" y1="68.2188" y2="68.2188"/><text fill="#000000" font-family="sans-serif" font-size="14" font-weight="bold" lengthAdjust="spacing" textLength="214" x="807" y="61.1426">Fase 3 - Monitoreo Autom&#225;tico</text></g><!--cluster Recursos--><g id="cluster_Recursos"><path d="M603.5,152.6094 L671.5,152.6094 A3.75,3.75 0 0 1 674,155.1094 L681,176.2188 L776.5,176.2188 A2.5,2.5 0 0 1 779,178.7188 L779,250.1094 A2.5,2.5 0 0 1 776.5,252.6094 L603.5,252.6094 A2.5,2.5 0 0 1 601,250.1094 L601,155.1094 A2.5,2.5 0 0 1 603.5,152.6094 " fill="none" style="stroke:#000000;stroke-width:1.5;"/><line style="stroke:#000000;stroke-width:1.5;" x1="601" x2="681" y1="176.2188" y2="176.2188"/><text fill="#000000" font-family="sans-serif" font-size="14" font-weight="bold" lengthAdjust="spacing" textLength="67" x="605" y="169.1426">Recursos</text></g><!--entity Lector Word/PDF--><g id="elem_Lector Word/PDF"><rect fill="#F1F1F1" height="47.6094" rx="2.5" ry="2.5" style="stroke:#181818;stroke-width:0.5;" width="150" x="397" y="80.6094"/><rect fill="#F1F1F1" height="10" style="stroke:#181818;stroke-width:0.5;" width="15" x="527" y="85.6094"/><rect fill="#F1F1F1" height="2" style="stroke:#181818;stroke-width:0.5;" width="4" x="525" y="87.6094"/><rect fill="#F1F1F1" height="2" style="stroke:#181818;stroke-width:0.5;" width="4" x="525" y="91.6094"/><text fill="#000000" font-family="sans-serif" font-size="14" lengthAdjust="spacing" textLength="110" x="412" y="115.1426">Lector Word/PDF</text></g><!--entity Extractor de Texto--><g id="elem_Extractor de Texto"><rect fill="#F1F1F1" height="47.6094" rx="2.5" ry="2.5" style="stroke:#181818;stroke-width:0.5;" width="155" x="394.5" y="188.6094"/><rect fill="#F1F1F1" height="10" style="stroke:#181818;stroke-width:0.5;" width="15" x="529.5" y="193.6094"/><rect fill="#F1F1F1" height="2" style="stroke:#181818;stroke-width:0.5;" width="4" x="527.5" y="195.6094"/><rect fill="#F1F1F1" height="2" style="stroke:#181818;stroke-width:0.5;" width="4" x="527.5" y="199.6094"/><text fill="#000000" font-family="sans-serif" font-size="14" lengthAdjust="spacing" textLength="115" x="409.5" y="223.1426">Extractor de Texto</text></g><!--entity Procesador NLP--><g id="elem_Procesador NLP"><rect fill="#F1F1F1" height="47.6094" rx="2.5" ry="2.5" style="stroke:#181818;stroke-width:0.5;" width="143" x="400.5" y="296.6094"/><rect fill="#F1F1F1" height="10" style="stroke:#181818;stroke-width:0.5;" width="15" x="523.5" y="301.6094"/><rect fill="#F1F1F1" height="2" style="stroke:#181818;stroke-width:0.5;" width="4" x="521.5" y="303.6094"/><rect fill="#F1F1F1" height="2" style="stroke:#181818;stroke-width:0.5;" width="4" x="521.5" y="307.6094"/><text fill="#000000" font-family="sans-serif" font-size="14" lengthAdjust="spacing" textLength="103" x="415.5" y="331.1426">Procesador NLP</text></g><!--entity Extractor de Datos Clave--><g id="elem_Extractor de Datos Clave"><rect fill="#F1F1F1" height="47.6094" rx="2.5" ry="2.5" style="stroke:#181818;stroke-width:0.5;" width="197" x="363.5" y="420.6094"/><rect fill="#F1F1F1" height="10" style="stroke:#181818;stroke-width:0.5;" width="15" x="540.5" y="425.6094"/><rect fill="#F1F1F1" height="2" style="stroke:#181818;stroke-width:0.5;" width="4" x="538.5" y="427.6094"/><rect fill="#F1F1F1" height="2" style="stroke:#181818;stroke-width:0.5;" width="4" x="538.5" y="431.6094"/><text fill="#000000" font-family="sans-serif" font-size="14" lengthAdjust="spacing" textLength="157" x="378.5" y="455.1426">Extractor de Datos Clave</text></g><!--entity Generador Embeddings--><g id="elem_Generador Embeddings"><rect fill="#F1F1F1" height="47.6094" rx="2.5" ry="2.5" style="stroke:#181818;stroke-width:0.5;" width="191" x="369.5" y="528.6094"/><rect fill="#F1F1F1" height="10" style="stroke:#181818;stroke-width:0.5;" width="15" x="540.5" y="533.6094"/><rect fill="#F1F1F1" height="2" style="stroke:#181818;stroke-width:0.5;" width="4" x="538.5" y="535.6094"/><rect fill="#F1F1F1" height="2" style="stroke:#181818;stroke-width:0.5;" width="4" x="538.5" y="539.6094"/><text fill="#000000" font-family="sans-serif" font-size="14" lengthAdjust="spacing" textLength="151" x="384.5" y="563.1426">Generador Embeddings</text></g><!--entity ChromaDB (Vector DB)--><g id="elem_ChromaDB (Vector DB)"><rect fill="#F1F1F1" height="47.6094" rx="2.5" ry="2.5" style="stroke:#181818;stroke-width:0.5;" width="187" x="373.5" y="636.6094"/><rect fill="#F1F1F1" height="10" style="stroke:#181818;stroke-width:0.5;" width="15" x="540.5" y="641.6094"/><rect fill="#F1F1F1" height="2" style="stroke:#181818;stroke-width:0.5;" width="4" x="538.5" y="643.6094"/><rect fill="#F1F1F1" height="2" style="stroke:#181818;stroke-width:0.5;" width="4" x="538.5" y="647.6094"/><text fill="#000000" font-family="sans-serif" font-size="14" lengthAdjust="spacing" textLength="147" x="388.5" y="671.1426">ChromaDB (Vector DB)</text></g><!--entity Exportador Excel--><g id="elem_Exportador Excel"><rect fill="#F1F1F1" height="47.6094" rx="2.5" ry="2.5" style="stroke:#181818;stroke-width:0.5;" width="146" x="188" y="528.6094"/><rect fill="#F1F1F1" height="10" style="stroke:#181818;stroke-width:0.5;" width="15" x="314" y="533.6094"/><rect fill="#F1F1F1" height="2" style="stroke:#181818;stroke-width:0.5;" width="4" x="312" y="535.6094"/><rect fill="#F1F1F1" height="2" style="stroke:#181818;stroke-width:0.5;" width="4" x="312" y="539.6094"/><text fill="#000000" font-family="sans-serif" font-size="14" lengthAdjust="spacing" textLength="106" x="203" y="563.1426">Exportador Excel</text></g><!--entity Interfaz Streamlit (Chatbot)--><g id="elem_Interfaz Streamlit (Chatbot)"><rect fill="#F1F1F1" height="47.6094" rx="2.5" ry="2.5" style="stroke:#181818;stroke-width:0.5;" width="209" x="824.5" y="420.6094"/><rect fill="#F1F1F1" height="10" style="stroke:#181818;stroke-width:0.5;" width="15" x="1013.5" y="425.6094"/><rect fill="#F1F1F1" height="2" style="stroke:#181818;stroke-width:0.5;" width="4" x="1011.5" y="427.6094"/><rect fill="#F1F1F1" height="2" style="stroke:#181818;stroke-width:0.5;" width="4" x="1011.5" y="431.6094"/><text fill="#000000" font-family="sans-serif" font-size="14" lengthAdjust="spacing" textLength="169" x="839.5" y="455.1426">Interfaz Streamlit (Chatbot)</text></g><!--entity LangChain--><g id="elem_LangChain"><rect fill="#F1F1F1" height="47.6094" rx="2.5" ry="2.5" style="stroke:#181818;stroke-width:0.5;" width="109" x="874.5" y="528.6094"/><rect fill="#F1F1F1" height="10" style="stroke:#181818;stroke-width:0.5;" width="15" x="963.5" y="533.6094"/><rect fill="#F1F1F1" height="2" style="stroke:#181818;stroke-width:0.5;" width="4" x="961.5" y="535.6094"/><rect fill="#F1F1F1" height="2" style="stroke:#181818;stroke-width:0.5;" width="4" x="961.5" y="539.6094"/><text fill="#000000" font-family="sans-serif" font-size="14" lengthAdjust="spacing" textLength="69" x="889.5" y="563.1426">LangChain</text></g><!--entity LLM Local (Ollama)--><g id="elem_LLM Local (Ollama)"><rect fill="#F1F1F1" height="47.6094" rx="2.5" ry="2.5" style="stroke:#181818;stroke-width:0.5;" width="163" x="847.5" y="636.6094"/><rect fill="#F1F1F1" height="10" style="stroke:#181818;stroke-width:0.5;" width="15" x="990.5" y="641.6094"/><rect fill="#F1F1F1" height="2" style="stroke:#181818;stroke-width:0.5;" width="4" x="988.5" y="643.6094"/><rect fill="#F1F1F1" height="2" style="stroke:#181818;stroke-width:0.5;" width="4" x="988.5" y="647.6094"/><text fill="#000000" font-family="sans-serif" font-size="14" lengthAdjust="spacing" textLength="123" x="862.5" y="671.1426">LLM Local (Ollama)</text></g><!--entity Procesador de Respuestas--><g id="elem_Procesador de Respuestas"><rect fill="#F1F1F1" height="47.6094" rx="2.5" ry="2.5" style="stroke:#181818;stroke-width:0.5;" width="212" x="824" y="744.6094"/><rect fill="#F1F1F1" height="10" style="stroke:#181818;stroke-width:0.5;" width="15" x="1016" y="749.6094"/><rect fill="#F1F1F1" height="2" style="stroke:#181818;stroke-width:0.5;" width="4" x="1014" y="751.6094"/><rect fill="#F1F1F1" height="2" style="stroke:#181818;stroke-width:0.5;" width="4" x="1014" y="755.6094"/><text fill="#000000" font-family="sans-serif" font-size="14" lengthAdjust="spacing" textLength="172" x="839" y="779.1426">Procesador de Respuestas</text></g><!--entity Watcher de Archivos--><g id="elem_Watcher de Archivos"><rect fill="#F1F1F1" height="47.6094" rx="2.5" ry="2.5" style="stroke:#181818;stroke-width:0.5;" width="171" x="852.5" y="80.6094"/><rect fill="#F1F1F1" height="10" style="stroke:#181818;stroke-width:0.5;" width="15" x="1003.5" y="85.6094"/><rect fill="#F1F1F1" height="2" style="stroke:#181818;stroke-width:0.5;" width="4" x="1001.5" y="87.6094"/><rect fill="#F1F1F1" height="2" style="stroke:#181818;stroke-width:0.5;" width="4" x="1001.5" y="91.6094"/><text fill="#000000" font-family="sans-serif" font-size="14" lengthAdjust="spacing" textLength="131" x="867.5" y="115.1426">Watcher de Archivos</text></g><!--entity Validador de Contratos Nuevos--><g id="elem_Validador de Contratos Nuevos"><rect fill="#F1F1F1" height="47.6094" rx="2.5" ry="2.5" style="stroke:#181818;stroke-width:0.5;" width="237" x="819.5" y="188.6094"/><rect fill="#F1F1F1" height="10" style="stroke:#181818;stroke-width:0.5;" width="15" x="1036.5" y="193.6094"/><rect fill="#F1F1F1" height="2" style="stroke:#181818;stroke-width:0.5;" width="4" x="1034.5" y="195.6094"/><rect fill="#F1F1F1" height="2" style="stroke:#181818;stroke-width:0.5;" width="4" x="1034.5" y="199.6094"/><text fill="#000000" font-family="sans-serif" font-size="14" lengthAdjust="spacing" textLength="197" x="834.5" y="223.1426">Validador de Contratos Nuevos</text></g><!--entity Pipeline de Fase 1--><g id="elem_Pipeline de Fase 1"><rect fill="#F1F1F1" height="47.6094" rx="2.5" ry="2.5" style="stroke:#181818;stroke-width:0.5;" width="158" x="859" y="296.6094"/><rect fill="#F1F1F1" height="10" style="stroke:#181818;stroke-width:0.5;" width="15" x="997" y="301.6094"/><rect fill="#F1F1F1" height="2" style="stroke:#181818;stroke-width:0.5;" width="4" x="995" y="303.6094"/><rect fill="#F1F1F1" height="2" style="stroke:#181818;stroke-width:0.5;" width="4" x="995" y="307.6094"/><text fill="#000000" font-family="sans-serif" font-size="14" lengthAdjust="spacing" textLength="118" x="874" y="331.1426">Pipeline de Fase 1</text></g><!--entity Contrato Modelo--><g id="elem_Contrato Modelo"><rect fill="#F1F1F1" height="47.6094" rx="2.5" ry="2.5" style="stroke:#181818;stroke-width:0.5;" width="145" x="617.5" y="188.6094"/><rect fill="#F1F1F1" height="10" style="stroke:#181818;stroke-width:0.5;" width="15" x="742.5" y="193.6094"/><rect fill="#F1F1F1" height="2" style="stroke:#181818;stroke-width:0.5;" width="4" x="740.5" y="195.6094"/><rect fill="#F1F1F1" height="2" style="stroke:#181818;stroke-width:0.5;" width="4" x="740.5" y="199.6094"/><text fill="#000000" font-family="sans-serif" font-size="14" lengthAdjust="spacing" textLength="105" x="632.5" y="223.1426">Contrato Modelo</text></g><g id="elem_GMN34"><path d="M596,531.1094 L596,573.8125 A0,0 0 0 0 596,573.8125 L645.96,573.8125 L516.44,636.5294 L653.96,573.8125 L792,573.8125 A0,0 0 0 0 792,573.8125 L792,541.1094 L782,531.1094 L596,531.1094 A0,0 0 0 0 596,531.1094 " fill="#FEFFDD" style="stroke:#181818;stroke-width:0.5;"/><path d="M782,531.1094 L782,541.1094 L792,541.1094 L782,531.1094 " fill="#FEFFDD" style="stroke:#181818;stroke-width:0.5;"/><text fill="#000000" font-family="sans-serif" font-size="13" lengthAdjust="spacing" textLength="115" x="602" y="549.6045">Base de datos local</text><text fill="#000000" font-family="sans-serif" font-size="13" lengthAdjust="spacing" textLength="175" x="602" y="565.9561">para embeddings y metadatos</text></g><g id="elem_GMN37"><path d="M6,639.1094 L6,681.8125 A0,0 0 0 0 6,681.8125 L156,681.8125 A0,0 0 0 0 156,681.8125 L156,649.1094 L146,639.1094 L120.02,639.1094 L221.94,576.6094 L112.02,639.1094 L6,639.1094 A0,0 0 0 0 6,639.1094 " fill="#FEFFDD" style="stroke:#181818;stroke-width:0.5;"/><path d="M146,639.1094 L146,649.1094 L156,649.1094 L146,639.1094 " fill="#FEFFDD" style="stroke:#181818;stroke-width:0.5;"/><text fill="#000000" font-family="sans-serif" font-size="13" lengthAdjust="spacing" textLength="99" x="12" y="657.6045">Archivo .xlsx con</text><text fill="#000000" font-family="sans-serif" font-size="13" lengthAdjust="spacing" textLength="129" x="12" y="673.9561">campos estructurados</text></g><!--link Lector Word/PDF to Extractor de Texto--><g id="link_Lector Word/PDF_Extractor de Texto"><path d="M472,128.6094 C472,146.2694 472,164.5494 472,182.2894 " fill="none" id="Lector Word/PDF-to-Extractor de Texto" style="stroke:#181818;stroke-width:1.0;"/><polygon fill="#181818" points="472,188.2894,476,179.2894,472,183.2894,468,179.2894,472,188.2894" style="stroke:#181818;stroke-width:1.0;"/></g><!--link Extractor de Texto to Procesador NLP--><g id="link_Extractor de Texto_Procesador NLP"><path d="M472,236.6094 C472,254.2694 472,272.5494 472,290.2894 " fill="none" id="Extractor de Texto-to-Procesador NLP" style="stroke:#181818;stroke-width:1.0;"/><polygon fill="#181818" points="472,296.2894,476,287.2894,472,291.2894,468,287.2894,472,296.2894" style="stroke:#181818;stroke-width:1.0;"/></g><!--link Procesador NLP to Extractor de Datos Clave--><g id="link_Procesador NLP_Extractor de Datos Clave"><path d="M470.1,344.8394 C468.32,366.5494 466.1582,392.7993 464.3882,414.4793 " fill="none" id="Procesador NLP-to-Extractor de Datos Clave" style="stroke:#181818;stroke-width:1.0;"/><polygon fill="#181818" points="463.9,420.4594,468.6191,411.8147,464.3069,415.476,460.6456,411.1637,463.9,420.4594" style="stroke:#181818;stroke-width:1.0;"/></g><!--link Extractor de Datos Clave to Generador Embeddings--><g id="link_Extractor de Datos Clave_Generador Embeddings"><path d="M462.65,468.6094 C463.15,486.2694 463.671,504.5518 464.171,522.2918 " fill="none" id="Extractor de Datos Clave-to-Generador Embeddings" style="stroke:#181818;stroke-width:1.0;"/><polygon fill="#181818" points="464.34,528.2894,468.0848,519.1803,464.1991,523.2914,460.088,519.4056,464.34,528.2894" style="stroke:#181818;stroke-width:1.0;"/></g><!--link Generador Embeddings to ChromaDB (Vector DB)--><g id="link_Generador Embeddings_ChromaDB (Vector DB)"><path d="M465.43,576.6094 C465.77,594.2694 466.1184,612.5504 466.4484,630.2904 " fill="none" id="Generador Embeddings-to-ChromaDB (Vector DB)" style="stroke:#181818;stroke-width:1.0;"/><polygon fill="#181818" points="466.56,636.2894,470.3919,627.2165,466.467,631.2902,462.3933,627.3653,466.56,636.2894" style="stroke:#181818;stroke-width:1.0;"/></g><!--link Extractor de Datos Clave to Exportador Excel--><g id="link_Extractor de Datos Clave_Exportador Excel"><path d="M418.39,468.6094 C384.79,486.3294 343.8473,507.9207 310.1873,525.6707 " fill="none" id="Extractor de Datos Clave-to-Exportador Excel" style="stroke:#181818;stroke-width:1.0;"/><polygon fill="#181818" points="304.88,528.4694,314.7067,527.8095,309.3027,526.1371,310.9751,520.7331,304.88,528.4694" style="stroke:#181818;stroke-width:1.0;"/></g><!--link Interfaz Streamlit (Chatbot) to LangChain--><g id="link_Interfaz Streamlit (Chatbot)_LangChain"><path d="M929,468.6094 C929,486.2694 929,504.5494 929,522.2894 " fill="none" id="Interfaz Streamlit (Chatbot)-to-LangChain" style="stroke:#181818;stroke-width:1.0;"/><polygon fill="#181818" points="929,528.2894,933,519.2894,929,523.2894,925,519.2894,929,528.2894" style="stroke:#181818;stroke-width:1.0;"/></g><!--link LangChain to ChromaDB (Vector DB)--><g id="link_LangChain_ChromaDB (Vector DB)"><path d="M874.19,566.1894 C796.98,583.8994 660.988,615.0973 566.778,636.7173 " fill="none" id="LangChain-to-ChromaDB (Vector DB)" style="stroke:#181818;stroke-width:1.0;"/><polygon fill="#181818" points="560.93,638.0594,570.5967,639.945,565.8033,636.941,568.8073,632.1477,560.93,638.0594" style="stroke:#181818;stroke-width:1.0;"/></g><!--link LangChain to LLM Local (Ollama)--><g id="link_LangChain_LLM Local (Ollama)"><path d="M929,576.6094 C929,594.2694 929,612.5494 929,630.2894 " fill="none" id="LangChain-to-LLM Local (Ollama)" style="stroke:#181818;stroke-width:1.0;"/><polygon fill="#181818" points="929,636.2894,933,627.2894,929,631.2894,925,627.2894,929,636.2894" style="stroke:#181818;stroke-width:1.0;"/></g><!--link LLM Local (Ollama) to Procesador de Respuestas--><g id="link_LLM Local (Ollama)_Procesador de Respuestas"><path d="M929.22,684.6094 C929.38,702.2694 929.5525,720.5497 929.7225,738.2897 " fill="none" id="LLM Local (Ollama)-to-Procesador de Respuestas" style="stroke:#181818;stroke-width:1.0;"/><polygon fill="#181818" points="929.78,744.2894,933.6936,735.2515,929.7321,739.2896,925.6939,735.3281,929.78,744.2894" style="stroke:#181818;stroke-width:1.0;"/></g><!--link Watcher de Archivos to Validador de Contratos Nuevos--><g id="link_Watcher de Archivos_Validador de Contratos Nuevos"><path d="M938,128.6094 C938,146.2694 938,164.5494 938,182.2894 " fill="none" id="Watcher de Archivos-to-Validador de Contratos Nuevos" style="stroke:#181818;stroke-width:1.0;"/><polygon fill="#181818" points="938,188.2894,942,179.2894,938,183.2894,934,179.2894,938,188.2894" style="stroke:#181818;stroke-width:1.0;"/></g><!--link Validador de Contratos Nuevos to Pipeline de Fase 1--><g id="link_Validador de Contratos Nuevos_Pipeline de Fase 1"><path d="M938,236.6094 C938,254.2694 938,272.5494 938,290.2894 " fill="none" id="Validador de Contratos Nuevos-to-Pipeline de Fase 1" style="stroke:#181818;stroke-width:1.0;"/><polygon fill="#181818" points="938,296.2894,942,287.2894,938,291.2894,934,287.2894,938,296.2894" style="stroke:#181818;stroke-width:1.0;"/></g><!--link Contrato Modelo to Procesador NLP--><g id="link_Contrato Modelo_Procesador NLP"><path d="M642.7,236.6094 C606.26,254.3294 561.4961,276.096 524.9861,293.846 " fill="none" id="Contrato Modelo-to-Procesador NLP" style="stroke:#181818;stroke-width:1.0;"/><polygon fill="#181818" points="519.59,296.4694,529.4331,296.1317,524.0867,294.2832,525.9352,288.9369,519.59,296.4694" style="stroke:#181818;stroke-width:1.0;"/></g><!--SRC=[ZLDBRXin3DtFAOYit8LRjDqNYEsaA319ZQH85e4NZ8QnXMh4WSG9fYrwc9wXHyZ5Iet6-TZJ94jIZ-JZuvDOSGJdDWhL21N1KIS1ZR5tVtqAv-mr5eufE0o1V8Mr9IzS50sQxxWcE3Z6IF0Ufa-AVsZKS13immFuLG1SbMI40rnogDuj5yShc4u_mLKkImywv1jrmgi47abd_3AmeOYLlfoMonwxanhfk-Ytc3kyfVtkZnzpxMVo5Ff-H_KrLPNrwzZNZJxaclacS8sB6KmkyfwBsPlNp1g4wdjsXjog-BshxWTLLsyHMoSOmR27-GRbccKGzeiN2ZVu4yub4DRE2am6HARmB23JAD6lDMLzN_0GlR3SBh0iJw1aWmucNvt36WVOVdhlcghE6SMcfQXRZgZmKLKuOMzrF34SjiBrtH-nXWSLBb7CXaBsgjdOMzwUvWAThROp7anzsbB2fDhd4GDLsv2pdX8ac_ufoJCoROWS1phRBigv8fTDlPiRTxGszIm4mWtmpV_5doKIIgRgkReahsOR30XqxqxzYZMflHAcq0yCgVKmGC-l8lOpzbq8MnNXRUTYbsodEODreyFqHg4rqgQ_yAZjFm00]--></g></svg>